***************************************************************

[IMG]http://www.torrentforce.org/imghost/3/greyshadow_tfbanner.png[/IMG]

***************************************************************

[IMG]http://www.torrentforce.org/imghost/4/greyshadow_thatswhatiam.jpg[/IMG]

***************************************************************

FILM TITLE: That's What I Am (2011)

***************************************************************

Genre: Drama    

Rated PG for thematic material throughout, language and some bullying

Release: 29 April 2011 (USA)

Director: Michael Pavone

Writer: Michael Pavone

Stars: Ed Harris, Chase Ellison and Molly Parker

Country: USA

Language: English

Plot:
A coming-of-age story that follows 12-year-old Andy Nichol (Chase Ellison), 
a bright student who, like most kids his age, will do anything to avoid 
conflict for fear of suffering overwhelming ridicule and punishment from 
his junior high school peers.

IMDB Rating: 7.0/10 from 2,671 users   Metascore: 53/100
 
http://www.imdb.com/title/tt1606180/ 

****************************************************************

[IMG]http://www.torrentforce.org/imghost/4/greyshadow_thatswhatiamx2641.png[/IMG]
[IMG]http://www.torrentforce.org/imghost/4/greyshadow_thatswhatiamx2642.png[/IMG]
[IMG]http://www.torrentforce.org/imghost/4/greyshadow_thatswhatiamx2643.png[/IMG]
[IMG]http://www.torrentforce.org/imghost/4/greyshadow_thatswhatiamx2644.png[/IMG]

****************************************************************

[IMG]http://www.torrentforce.org/imghost/2/greyshadow_mediainfo.png[/IMG]
General
Complete name                    : Thats What I Am 2011 720p BDRip x264 aac (mp4) [TFRG].mp4
Format                           : MPEG-4
Format profile                   : Base Media
Codec ID                         : isom
File size                        : 2.78 GiB
Duration                         : 1h 41mn
Overall bit rate                 : 3921 Kbps
Encoded date                     : UTC 2011-10-16 11:30:57
Tagged date                      : UTC 2011-10-16 11:30:57

Video
ID                               : 1
Format                           : AVC
Format/Info                      : Advanced Video Codec
Format profile                   : High@L4.1
Format settings, CABAC           : Yes
Format settings, ReFrames        : 9 frames
Codec ID                         : avc1
Codec ID/Info                    : Advanced Video Coding
Duration                         : 1h 41mn
Bit rate                         : 3200 Kbps
Maximum bit rate                 : 11.3 Mbps
Width                            : 1280 pixels
Height                           : 688 pixels
Display aspect ratio             : 1.860
Frame rate mode                  : Constant
Frame rate                       : 23.976 fps
Color space                      : YUV
Chroma subsampling               : 4:2:0
Bit depth                        : 8 bits
Scan type                        : Progressive
Bits/(Pixel*Frame)               : 0.152
Stream size                      : 2.27 GiB (82%)
Title                            : Thats What I Am AVC MPEG4 Video
Writing library                  : x264 core 118 r2085 8a62835
Encoded date                     : UTC 2011-10-15 15:27:31
Tagged date                      : UTC 2011-10-16 11:31:54
Color primaries                  : BT.709-5, BT.1361, IEC 61966-2-4, SMPTE RP177
Transfer characteristics         : BT.709-5, BT.1361
Matrix coefficients              : BT.709-5, BT.1361, IEC 61966-2-4 709, SMPTE RP177

Audio
ID                               : 2
Format                           : AAC
Format/Info                      : Advanced Audio Codec
Format profile                   : LC
Codec ID                         : 40
Duration                         : 1h 41mn
Bit rate mode                    : Variable
Bit rate                         : 718 Kbps
Maximum bit rate                 : 850 Kbps
Channel(s)                       : 6 channels
Channel positions                : Front: L C R, Side: L R, LFE
Sampling rate                    : 48.0 KHz
Compression mode                 : Lossy
Stream size                      : 521 MiB (18%)
Title                            : Thats What I Am AAC 5.1 Audio
Language                         : English
Encoded date                     : UTC 2011-10-16 11:31:43
Tagged date                      : UTC 2011-10-16 11:31:54

****************************************************************

Video Source: Thats What I Am 2011 BluRay 1080p AVC DTS-HD MA5.1-CHDBits (42.7GB)

Thanks: (chdbits.org)

****************************************************************

I provide a small sample, so please download this to check your 
compatibility first if you are unsure.

****************************************************************

7th October 2011

I am re-introducing my warning to all downloaders, please please
please use a proxy or vpn service, it is the only secure way to
keep your own ip address from being seen during downloading or
uploading/seeding, this WILL stop isp letters, as for advice to 
which one then thats simple, vpntunnel.se server based in Sweden 
is the right one to use, I have cancelled my vpn and transfered 
to a Swedish one already !!! enough said. 

****************************************************************

A big thanks to all the sites out there who care and share and
who make it possible for you to download this torrent for free.

Greetz to Westy, Ripwyn, mustang, noir, Blackjesus, MXMG, The Stig 
and all the other outstanding members of our community of file 
sharers and a special mention to our friends at 1337x.

****************************************************************